<?xml version="1.0" encoding="UTF-8" standalone="no"?><!DOCTYPE svg PUBLIC "-//W3C//DTD SVG 1.1//EN" "http://www.w3.org/Graphics/SVG/1.1/DTD/svg11.dtd"><svg width="100%" height="100%" viewBox="0 0 400 400" version="1.1" xmlns="http://www.w3.org/2000/svg" xmlns:xlink="http://www.w3.org/1999/xlink" xml:space="preserve" xmlns:serif="http://www.serif.com/" style="fill-rule:evenodd;clip-rule:evenodd;stroke-linejoin:round;stroke-miterlimit:1.41421;"><g><circle cx="200" cy="200" r="200" style="fill:#fff;"/><clipPath id="_clip1"><circle cx="200" cy="200" r="200"/></clipPath><g clip-path="url(#_clip1)"><clipPath id="_clip2"><rect id="bag" x="69.389" y="200" width="261.222" height="243.208"/></clipPath><g clip-path="url(#_clip2)"><g><rect x="73.892" y="200.002" width="252.214" height="63.054" style="fill:#e0c6a9;"/><path d="M294.581,227.024l27.022,-27.022l9.008,0l0,63.054l-9.008,0l-27.022,-36.032" style="fill:#ffecd7;fill-rule:nonzero;"/><path d="M294.581,227.024l0,36.03l27.022,0l-27.022,-36.03Z" style="fill:#ccb297;fill-rule:nonzero;"/><path d="M105.419,227.024l-27.022,-27.022l-9.008,0l0,63.054l9.008,0l27.022,-36.032" style="fill:#ffecd7;fill-rule:nonzero;"/><path d="M105.419,227.024l0,36.03l-27.022,0l27.022,-36.03Z" style="fill:#ccb297;fill-rule:nonzero;"/><path d="M313.758,443.214l-227.516,0c-0.001,0 -0.001,0 -0.002,0c-9.244,0 -16.851,-7.607 -16.851,-16.851c0,-0.003 0,-0.007 0,-0.01l0,-163.299l261.222,0l0,163.299c0,0.003 0,0.007 0,0.01c0,9.244 -7.607,16.851 -16.851,16.851c-0.001,0 -0.001,0 -0.002,0Z" style="fill:#f0d7b8;fill-rule:nonzero;"/><circle cx="145.954" cy="299.086" r="13.511" style="fill:#72543a;"/><circle cx="254.046" cy="299.086" r="13.511" style="fill:#72543a;"/><path d="M200,384.657c-32.105,-0.038 -58.511,-26.444 -58.549,-58.549l0,-27.024c0,-2.471 2.033,-4.504 4.504,-4.504c2.471,0 4.504,2.033 4.504,4.504l0,27.024c0.46,26.858 22.68,48.701 49.542,48.701c26.862,0 49.082,-21.843 49.542,-48.701l0,-27.024c0,-2.471 2.033,-4.504 4.504,-4.504c2.471,0 4.504,2.033 4.504,4.504l0,27.024c-0.037,32.105 -26.445,58.512 -58.551,58.549Z" style="fill:#ceb69e;fill-rule:nonzero;"/></g></g></g><g><path d="M154.473,164.784l5.71,5.475c0.024,0.023 0.049,0.046 0.074,0.068c1.158,1.043 2.97,0.949 4.013,-0.21c0.219,-0.243 0.394,-0.522 0.518,-0.825l3.011,-7.287l6.857,-3.697c0.328,-0.161 0.623,-0.384 0.867,-0.655c1.053,-1.169 0.957,-2.998 -0.212,-4.051c-0.018,-0.016 -0.037,-0.033 -0.056,-0.049l-6.041,-5.106l-1.416,-7.771c-0.115,-0.623 -0.432,-1.191 -0.903,-1.614c-0.943,-0.85 -2.343,-0.977 -3.424,-0.312l-6.731,4.174l-7.79,-1.056l-0.003,-0.088c-0.941,-0.129 -1.888,0.217 -2.524,0.923c-0.636,0.707 -0.882,1.685 -0.654,2.607l1.881,7.679l-3.372,7.013c-0.601,1.157 -0.343,2.585 0.626,3.457c0.469,0.422 1.063,0.678 1.692,0.728l7.877,0.597Zm-1.246,-10.174c0.288,-0.598 0.357,-1.278 0.196,-1.922l-1.114,-4.584l4.67,0.635c0.668,0.091 1.347,-0.059 1.915,-0.422l3.899,-2.398l0.891,4.689c0.123,0.674 0.484,1.281 1.018,1.709l3.535,3.003l-4.161,2.237c-0.573,0.311 -1.023,0.81 -1.272,1.412l-1.79,4.373l-3.283,-3.229c-0.481,-0.486 -1.123,-0.782 -1.805,-0.833l-4.757,-0.397l2.058,-4.273Z" style="fill:#8d8d8d;fill-rule:nonzero;"/><path d="M172.415,170.081l13.878,12.496c1.182,0.839 2.824,0.657 3.794,-0.42c0.97,-1.078 0.979,-2.729 0.022,-3.817l-13.879,-12.497c-1.182,-0.838 -2.824,-0.657 -3.794,0.421c-0.97,1.077 -0.979,2.729 -0.021,3.817Z" style="fill:#8d8d8d;fill-rule:nonzero;"/><path d="M199.487,171.837c0.826,0.009 1.616,-0.337 2.169,-0.951c0.468,-0.52 0.731,-1.194 0.738,-1.895l0.273,-18.678c0.013,-0.83 -0.334,-1.627 -0.951,-2.182c-1.172,-1.055 -3.004,-0.959 -4.059,0.213c-0.472,0.523 -0.735,1.202 -0.739,1.907l-0.273,18.678c-0.009,0.826 0.337,1.617 0.951,2.17c0.52,0.468 1.192,0.73 1.891,0.738Z" style="fill:#8d8d8d;fill-rule:nonzero;"/><path d="M225.101,163.255l-12.513,13.896c-0.839,1.183 -0.657,2.824 0.421,3.794c1.077,0.97 2.728,0.98 3.817,0.022l12.512,-13.897c0.839,-1.182 0.657,-2.824 -0.42,-3.794c-1.077,-0.97 -2.729,-0.979 -3.817,-0.021Z" style="fill:#8d8d8d;fill-rule:nonzero;"/><path d="M211.078,133.445l4.924,-6.179c0.94,-1.179 0.798,-2.91 -0.324,-3.919c-0.319,-0.288 -0.699,-0.5 -1.111,-0.621l-7.523,-2.324l-4.378,-6.498c-0.125,-0.18 -0.27,-0.344 -0.433,-0.491c-1.17,-1.053 -3,-0.957 -4.054,0.213c-0.08,0.089 -0.154,0.183 -0.223,0.281l-4.559,6.483l-7.705,2.011c-0.524,0.144 -0.996,0.435 -1.359,0.839c-0.92,1.021 -0.973,2.569 -0.127,3.652l4.745,6.318l-0.353,7.891c-0.036,0.855 0.311,1.683 0.947,2.256c0.769,0.692 1.855,0.917 2.836,0.587l7.442,-2.586l7.531,2.684c1.104,0.415 2.355,0.11 3.143,-0.766c0.499,-0.554 0.763,-1.28 0.736,-2.025l-0.155,-7.806Zm-10.201,2.271c-0.622,-0.239 -1.309,-0.25 -1.939,-0.034l-4.47,1.527l0.246,-4.563c0.089,-0.73 -0.109,-1.468 -0.552,-2.056l-2.804,-3.702l4.336,-1.209c0.731,-0.135 1.381,-0.55 1.809,-1.157l2.717,-3.87l2.509,3.718c0.36,0.613 0.938,1.07 1.619,1.278l4.463,1.462l-2.955,3.706c-0.419,0.519 -0.642,1.169 -0.631,1.836l0.078,4.713l-4.426,-1.649Z" style="fill:#8d8d8d;fill-rule:nonzero;"/><path d="M249.759,136.588l-7.636,1.865l-7.125,-3.449c-1.144,-0.55 -2.524,-0.277 -3.373,0.666c-0.424,0.471 -0.68,1.07 -0.728,1.702l-0.608,7.88l-5.475,5.71c-0.016,0.017 -0.032,0.034 -0.048,0.052c-1.053,1.17 -0.957,3 0.213,4.054c0.271,0.244 0.586,0.434 0.928,0.56l7.207,2.96l3.74,6.949c0.155,0.288 0.359,0.547 0.602,0.766c1.158,1.043 2.97,0.948 4.013,-0.21c0.023,-0.025 0.045,-0.05 0.066,-0.076l5.123,-5.975l7.771,-1.416c0.619,-0.116 1.184,-0.432 1.606,-0.901c0.872,-0.969 0.98,-2.416 0.261,-3.503l-4.087,-6.622l1.069,-7.833c0.13,-0.942 -0.217,-1.889 -0.923,-2.525c-0.706,-0.636 -1.684,-0.881 -2.607,-0.654l0.011,0Zm-3.168,11.187c-0.093,0.657 0.047,1.327 0.396,1.891l2.485,4.027l-4.69,0.891c-0.673,0.123 -1.28,0.485 -1.709,1.018l-3.066,3.606l-2.36,-4.195c-0.311,-0.574 -0.81,-1.023 -1.412,-1.272l-4.373,-1.79l3.215,-3.371c0.487,-0.482 0.783,-1.123 0.834,-1.806l0.396,-4.757l4.128,1.977c0.628,0.347 1.364,0.443 2.06,0.27l4.584,-1.114l-0.488,4.625Z" style="fill:#8d8d8d;fill-rule:nonzero;"/></g></g></svg>