<?xml version="1.0" encoding="UTF-8" standalone="no"?><!DOCTYPE svg PUBLIC "-//W3C//DTD SVG 1.1//EN" "http://www.w3.org/Graphics/SVG/1.1/DTD/svg11.dtd"><svg width="100%" height="100%" viewBox="0 0 400 400" version="1.1" xmlns="http://www.w3.org/2000/svg" xmlns:xlink="http://www.w3.org/1999/xlink" xml:space="preserve" xmlns:serif="http://www.serif.com/" style="fill-rule:evenodd;clip-rule:evenodd;stroke-linejoin:round;stroke-miterlimit:1.41421;"><g><circle cx="200" cy="200" r="200" style="fill:#fff;"/><clipPath id="_clip1"><circle cx="200" cy="200" r="200"/></clipPath><g clip-path="url(#_clip1)"><clipPath id="_clip2"><rect id="bag" x="69.389" y="200" width="261.222" height="243.208"/></clipPath><g clip-path="url(#_clip2)"><g><rect x="73.892" y="200.002" width="252.214" height="63.054" style="fill:#e0c6a9;"/><path d="M294.581,227.024l27.022,-27.022l9.008,0l0,63.054l-9.008,0l-27.022,-36.032" style="fill:#ffecd7;fill-rule:nonzero;"/><path d="M294.581,227.024l0,36.03l27.022,0l-27.022,-36.03Z" style="fill:#ccb297;fill-rule:nonzero;"/><path d="M105.419,227.024l-27.022,-27.022l-9.008,0l0,63.054l9.008,0l27.022,-36.032" style="fill:#ffecd7;fill-rule:nonzero;"/><path d="M105.419,227.024l0,36.03l-27.022,0l27.022,-36.03Z" style="fill:#ccb297;fill-rule:nonzero;"/><path d="M313.758,443.214l-227.516,0c-0.001,0 -0.001,0 -0.002,0c-9.244,0 -16.851,-7.607 -16.851,-16.851c0,-0.003 0,-0.007 0,-0.01l0,-163.299l261.222,0l0,163.299c0,0.003 0,0.007 0,0.01c0,9.244 -7.607,16.851 -16.851,16.851c-0.001,0 -0.001,0 -0.002,0Z" style="fill:#f0d7b8;fill-rule:nonzero;"/><circle cx="145.954" cy="299.086" r="13.511" style="fill:#72543a;"/><circle cx="254.046" cy="299.086" r="13.511" style="fill:#72543a;"/><path d="M200,384.657c-32.105,-0.038 -58.511,-26.444 -58.549,-58.549l0,-27.024c0,-2.471 2.033,-4.504 4.504,-4.504c2.471,0 4.504,2.033 4.504,4.504l0,27.024c0.46,26.858 22.68,48.701 49.542,48.701c26.862,0 49.082,-21.843 49.542,-48.701l0,-27.024c0,-2.471 2.033,-4.504 4.504,-4.504c2.471,0 4.504,2.033 4.504,4.504l0,27.024c-0.037,32.105 -26.445,58.512 -58.551,58.549Z" style="fill:#ceb69e;fill-rule:nonzero;"/></g></g></g><circle cx="200" cy="200" r="41.011" style="fill:#fff;"/><path d="M200,232.684c-17.93,0 -32.684,-14.754 -32.684,-32.684c0,-17.93 14.754,-32.684 32.684,-32.684c17.93,0 32.684,14.754 32.684,32.684c0,17.93 -14.754,32.684 -32.684,32.684Zm0,-6.537c14.344,0 26.147,-11.803 26.147,-26.147c0,-14.344 -11.803,-26.147 -26.147,-26.147c-14.344,0 -26.147,11.803 -26.147,26.147c0,14.344 11.803,26.147 26.147,26.147Zm-7.517,-28.435l4.249,4.216l10.785,-10.785c0.59,-0.498 1.337,-0.772 2.109,-0.772c1.793,0 3.269,1.475 3.269,3.268c0,0.788 -0.285,1.55 -0.802,2.145l-13.074,13.073c-1.262,1.238 -3.312,1.238 -4.575,0l-6.537,-6.536c-0.517,-0.595 -0.802,-1.357 -0.802,-2.145c0,-1.793 1.476,-3.268 3.269,-3.268c0.772,0 1.519,0.273 2.109,0.771l0,0.033Z" style="fill:#34ad7c;fill-rule:nonzero;"/></g></svg>