<?xml version="1.0" encoding="UTF-8" standalone="no"?><!DOCTYPE svg PUBLIC "-//W3C//DTD SVG 1.1//EN" "http://www.w3.org/Graphics/SVG/1.1/DTD/svg11.dtd"><svg width="100%" height="100%" viewBox="0 0 236 31" version="1.1" xmlns="http://www.w3.org/2000/svg" xmlns:xlink="http://www.w3.org/1999/xlink" xml:space="preserve" xmlns:serif="http://www.serif.com/" style="fill-rule:evenodd;clip-rule:evenodd;stroke-linejoin:round;stroke-miterlimit:1.41421;"><g id="Symbol_20_1"><path d="M30.652,24c-0.173,0 -0.321,-0.061 -0.442,-0.182c-0.121,-0.121 -0.182,-0.269 -0.182,-0.442l0,-16.926c0,-0.191 0.056,-0.347 0.169,-0.468c0.113,-0.121 0.264,-0.182 0.455,-0.182l7.54,0c2.028,0 3.545,0.446 4.55,1.339c1.005,0.893 1.508,2.11 1.508,3.653c0,0.901 -0.221,1.668 -0.663,2.301c-0.442,0.633 -0.958,1.088 -1.547,1.365c0.728,0.329 1.343,0.867 1.846,1.612c0.503,0.745 0.754,1.595 0.754,2.548c0,1.612 -0.546,2.912 -1.638,3.9c-1.092,0.988 -2.617,1.482 -4.576,1.482l-7.774,0Zm7.072,-10.738c0.884,0 1.564,-0.217 2.041,-0.65c0.477,-0.433 0.715,-1.014 0.715,-1.742c0,-0.728 -0.234,-1.291 -0.702,-1.69c-0.468,-0.399 -1.153,-0.598 -2.054,-0.598l-4.03,0l0,4.68l4.03,0Zm0.26,7.956c0.901,0 1.603,-0.247 2.106,-0.741c0.503,-0.494 0.754,-1.122 0.754,-1.885c0,-0.763 -0.256,-1.391 -0.767,-1.885c-0.511,-0.494 -1.209,-0.741 -2.093,-0.741l-4.29,0l0,5.252l4.29,0Z" style="fill:#fff;fill-rule:nonzero;"/><path d="M53.428,24.26c-1.941,0 -3.48,-0.555 -4.615,-1.664c-1.135,-1.109 -1.738,-2.687 -1.807,-4.732l-0.026,-0.65c0,-2.167 0.568,-3.874 1.703,-5.122c1.135,-1.248 2.708,-1.872 4.719,-1.872c2.063,0 3.653,0.624 4.771,1.872c1.118,1.248 1.677,2.912 1.677,4.992l0,0.546c0,0.173 -0.061,0.321 -0.182,0.442c-0.121,0.121 -0.277,0.182 -0.468,0.182l-8.632,0l0,0.208c0.035,0.971 0.299,1.772 0.793,2.405c0.494,0.633 1.174,0.949 2.041,0.949c0.988,0 1.794,-0.399 2.418,-1.196c0.156,-0.191 0.277,-0.308 0.364,-0.351c0.087,-0.043 0.234,-0.065 0.442,-0.065l2.288,0c0.156,0 0.29,0.043 0.403,0.13c0.113,0.087 0.169,0.208 0.169,0.364c0,0.416 -0.247,0.906 -0.741,1.469c-0.494,0.563 -1.2,1.053 -2.119,1.469c-0.919,0.416 -1.985,0.624 -3.198,0.624Zm2.834,-8.216l0,-0.052c0,-1.023 -0.256,-1.842 -0.767,-2.457c-0.511,-0.615 -1.209,-0.923 -2.093,-0.923c-0.884,0 -1.577,0.308 -2.08,0.923c-0.503,0.615 -0.754,1.434 -0.754,2.457l0,0.052l5.694,0Z" style="fill:#fff;fill-rule:nonzero;"/><path d="M67.754,24.26c-1.317,0 -2.418,-0.199 -3.302,-0.598c-0.884,-0.399 -1.538,-0.862 -1.963,-1.391c-0.425,-0.529 -0.637,-0.984 -0.637,-1.365c0,-0.173 0.056,-0.312 0.169,-0.416c0.113,-0.104 0.247,-0.156 0.403,-0.156l2.132,0c0.139,0 0.26,0.069 0.364,0.208c0.087,0.069 0.282,0.234 0.585,0.494c0.303,0.26 0.65,0.464 1.04,0.611c0.39,0.147 0.819,0.221 1.287,0.221c0.693,0 1.257,-0.134 1.69,-0.403c0.433,-0.269 0.65,-0.654 0.65,-1.157c0,-0.347 -0.1,-0.628 -0.299,-0.845c-0.199,-0.217 -0.555,-0.416 -1.066,-0.598c-0.511,-0.182 -1.278,-0.386 -2.301,-0.611c-1.473,-0.312 -2.561,-0.789 -3.263,-1.43c-0.702,-0.641 -1.053,-1.491 -1.053,-2.548c0,-0.693 0.208,-1.348 0.624,-1.963c0.416,-0.615 1.036,-1.118 1.859,-1.508c0.823,-0.39 1.807,-0.585 2.951,-0.585c1.179,0 2.193,0.186 3.042,0.559c0.849,0.373 1.495,0.819 1.937,1.339c0.442,0.52 0.663,0.979 0.663,1.378c0,0.156 -0.056,0.29 -0.169,0.403c-0.113,0.113 -0.247,0.169 -0.403,0.169l-1.95,0c-0.191,0 -0.338,-0.069 -0.442,-0.208c-0.121,-0.087 -0.316,-0.247 -0.585,-0.481c-0.269,-0.234 -0.568,-0.42 -0.897,-0.559c-0.329,-0.139 -0.728,-0.208 -1.196,-0.208c-0.641,0 -1.135,0.139 -1.482,0.416c-0.347,0.277 -0.52,0.641 -0.52,1.092c0,0.312 0.082,0.572 0.247,0.78c0.165,0.208 0.498,0.403 1.001,0.585c0.503,0.182 1.257,0.368 2.262,0.559c3.12,0.607 4.68,1.967 4.68,4.082c0,1.231 -0.533,2.227 -1.599,2.99c-1.066,0.763 -2.552,1.144 -4.459,1.144Z" style="fill:#fff;fill-rule:nonzero;"/><path d="M82.548,24c-1.577,0 -2.765,-0.412 -3.562,-1.235c-0.797,-0.823 -1.196,-2.032 -1.196,-3.627l0,-5.876l-2.054,0c-0.173,0 -0.321,-0.061 -0.442,-0.182c-0.121,-0.121 -0.182,-0.269 -0.182,-0.442l0,-1.534c0,-0.173 0.061,-0.321 0.182,-0.442c0.121,-0.121 0.269,-0.182 0.442,-0.182l2.054,0l0,-4.316c0,-0.191 0.061,-0.342 0.182,-0.455c0.121,-0.113 0.269,-0.169 0.442,-0.169l2.158,0c0.191,0 0.342,0.056 0.455,0.169c0.113,0.113 0.169,0.264 0.169,0.455l0,4.316l3.25,0c0.173,0 0.321,0.061 0.442,0.182c0.121,0.121 0.182,0.269 0.182,0.442l0,1.534c0,0.173 -0.061,0.321 -0.182,0.442c-0.121,0.121 -0.269,0.182 -0.442,0.182l-3.25,0l0,5.59c0,0.745 0.13,1.309 0.39,1.69c0.26,0.381 0.685,0.572 1.274,0.572l1.82,0c0.191,0 0.342,0.056 0.455,0.169c0.113,0.113 0.169,0.264 0.169,0.455l0,1.638c0,0.173 -0.056,0.321 -0.169,0.442c-0.113,0.121 -0.264,0.182 -0.455,0.182l-2.132,0Z" style="fill:#fff;fill-rule:nonzero;"/><path d="M87.956,17.708c-0.173,0 -0.321,-0.061 -0.442,-0.182c-0.121,-0.121 -0.182,-0.269 -0.182,-0.442l0,-1.768c0,-0.173 0.061,-0.321 0.182,-0.442c0.121,-0.121 0.269,-0.182 0.442,-0.182l8.008,0c0.191,0 0.342,0.056 0.455,0.169c0.113,0.113 0.169,0.264 0.169,0.455l0,1.768c0,0.173 -0.061,0.321 -0.182,0.442c-0.121,0.121 -0.269,0.182 -0.442,0.182l-8.008,0Z" style="fill:#fff;fill-rule:nonzero;"/><path d="M100.54,24c-0.173,0 -0.321,-0.061 -0.442,-0.182c-0.121,-0.121 -0.182,-0.269 -0.182,-0.442l0,-12.272c0,-0.191 0.061,-0.342 0.182,-0.455c0.121,-0.113 0.269,-0.169 0.442,-0.169l2.158,0c0.191,0 0.342,0.056 0.455,0.169c0.113,0.113 0.169,0.264 0.169,0.455l0,1.066c1.057,-1.3 2.505,-1.95 4.342,-1.95c1.595,0 2.86,0.52 3.796,1.56c0.936,1.04 1.404,2.47 1.404,4.29l0,7.306c0,0.173 -0.056,0.321 -0.169,0.442c-0.113,0.121 -0.264,0.182 -0.455,0.182l-2.34,0c-0.173,0 -0.321,-0.061 -0.442,-0.182c-0.121,-0.121 -0.182,-0.269 -0.182,-0.442l0,-7.15c0,-1.005 -0.247,-1.79 -0.741,-2.353c-0.494,-0.563 -1.2,-0.845 -2.119,-0.845c-0.884,0 -1.595,0.286 -2.132,0.858c-0.537,0.572 -0.806,1.352 -0.806,2.34l0,7.15c0,0.173 -0.056,0.321 -0.169,0.442c-0.113,0.121 -0.264,0.182 -0.455,0.182l-2.314,0Z" style="fill:#fff;fill-rule:nonzero;"/><path d="M120.092,24.26c-0.884,0 -1.694,-0.178 -2.431,-0.533c-0.737,-0.355 -1.317,-0.836 -1.742,-1.443c-0.425,-0.607 -0.637,-1.274 -0.637,-2.002c0,-1.179 0.477,-2.132 1.43,-2.86c0.953,-0.728 2.262,-1.222 3.926,-1.482l3.562,-0.52l0,-0.546c0,-0.745 -0.191,-1.309 -0.572,-1.69c-0.381,-0.381 -0.988,-0.572 -1.82,-0.572c-0.572,0 -1.031,0.104 -1.378,0.312c-0.347,0.208 -0.628,0.42 -0.845,0.637c-0.217,0.217 -0.36,0.36 -0.429,0.429c-0.069,0.208 -0.199,0.312 -0.39,0.312l-2.028,0c-0.156,0 -0.29,-0.052 -0.403,-0.156c-0.113,-0.104 -0.169,-0.243 -0.169,-0.416c0.017,-0.433 0.23,-0.923 0.637,-1.469c0.407,-0.546 1.036,-1.023 1.885,-1.43c0.849,-0.407 1.898,-0.611 3.146,-0.611c2.045,0 3.536,0.459 4.472,1.378c0.936,0.919 1.404,2.123 1.404,3.614l0,8.164c0,0.173 -0.056,0.321 -0.169,0.442c-0.113,0.121 -0.264,0.182 -0.455,0.182l-2.158,0c-0.173,0 -0.321,-0.061 -0.442,-0.182c-0.121,-0.121 -0.182,-0.269 -0.182,-0.442l0,-1.014c-0.381,0.555 -0.919,1.01 -1.612,1.365c-0.693,0.355 -1.56,0.533 -2.6,0.533Zm0.884,-2.496c0.953,0 1.733,-0.312 2.34,-0.936c0.607,-0.624 0.91,-1.525 0.91,-2.704l0,-0.52l-2.6,0.416c-1.993,0.312 -2.99,0.979 -2.99,2.002c0,0.555 0.23,0.984 0.689,1.287c0.459,0.303 1.01,0.455 1.651,0.455Z" style="fill:#fff;fill-rule:nonzero;"/><path d="M138.552,24.26c-1.803,0 -3.181,-0.615 -4.134,-1.846l0,0.962c0,0.173 -0.061,0.321 -0.182,0.442c-0.121,0.121 -0.277,0.182 -0.468,0.182l-2.08,0c-0.173,0 -0.321,-0.061 -0.442,-0.182c-0.121,-0.121 -0.182,-0.269 -0.182,-0.442l0,-17.212c0,-0.191 0.061,-0.342 0.182,-0.455c0.121,-0.113 0.269,-0.169 0.442,-0.169l2.262,0c0.191,0 0.342,0.056 0.455,0.169c0.113,0.113 0.169,0.264 0.169,0.455l0,5.772c0.971,-1.144 2.297,-1.716 3.978,-1.716c1.751,0 3.098,0.568 4.043,1.703c0.945,1.135 1.443,2.622 1.495,4.459c0.017,0.208 0.026,0.494 0.026,0.858c0,0.347 -0.009,0.633 -0.026,0.858c-0.069,1.872 -0.572,3.367 -1.508,4.485c-0.936,1.118 -2.279,1.677 -4.03,1.677Zm-0.988,-2.808c1.855,0 2.843,-1.144 2.964,-3.432c0.017,-0.173 0.026,-0.433 0.026,-0.78c0,-0.347 -0.009,-0.607 -0.026,-0.78c-0.121,-2.288 -1.109,-3.432 -2.964,-3.432c-0.953,0 -1.681,0.303 -2.184,0.91c-0.503,0.607 -0.771,1.343 -0.806,2.21c-0.017,0.208 -0.026,0.546 -0.026,1.014c0,0.451 0.009,0.78 0.026,0.988c0.035,0.919 0.295,1.699 0.78,2.34c0.485,0.641 1.222,0.962 2.21,0.962Z" style="fill:#fff;fill-rule:nonzero;"/><path d="M148.9,28.94c-0.139,0 -0.264,-0.052 -0.377,-0.156c-0.113,-0.104 -0.169,-0.225 -0.169,-0.364c0,-0.121 0.035,-0.26 0.104,-0.416l2.054,-4.81l-4.992,-11.778c-0.069,-0.156 -0.104,-0.277 -0.104,-0.364c0.017,-0.156 0.078,-0.29 0.182,-0.403c0.104,-0.113 0.234,-0.169 0.39,-0.169l2.158,0c0.312,0 0.537,0.165 0.676,0.494l3.458,8.476l3.51,-8.476c0.173,-0.329 0.416,-0.494 0.728,-0.494l2.106,0c0.156,0 0.286,0.052 0.39,0.156c0.104,0.104 0.156,0.225 0.156,0.364c0,0.121 -0.035,0.26 -0.104,0.416l-7.358,17.03c-0.139,0.329 -0.381,0.494 -0.728,0.494l-2.08,0Z" style="fill:#fff;fill-rule:nonzero;"/><path d="M167.542,24c-1.577,0 -2.765,-0.412 -3.562,-1.235c-0.797,-0.823 -1.196,-2.032 -1.196,-3.627l0,-5.876l-2.054,0c-0.173,0 -0.321,-0.061 -0.442,-0.182c-0.121,-0.121 -0.182,-0.269 -0.182,-0.442l0,-1.534c0,-0.173 0.061,-0.321 0.182,-0.442c0.121,-0.121 0.269,-0.182 0.442,-0.182l2.054,0l0,-4.316c0,-0.191 0.061,-0.342 0.182,-0.455c0.121,-0.113 0.269,-0.169 0.442,-0.169l2.158,0c0.191,0 0.342,0.056 0.455,0.169c0.113,0.113 0.169,0.264 0.169,0.455l0,4.316l3.25,0c0.173,0 0.321,0.061 0.442,0.182c0.121,0.121 0.182,0.269 0.182,0.442l0,1.534c0,0.173 -0.061,0.321 -0.182,0.442c-0.121,0.121 -0.269,0.182 -0.442,0.182l-3.25,0l0,5.59c0,0.745 0.13,1.309 0.39,1.69c0.26,0.381 0.685,0.572 1.274,0.572l1.82,0c0.191,0 0.342,0.056 0.455,0.169c0.113,0.113 0.169,0.264 0.169,0.455l0,1.638c0,0.173 -0.056,0.321 -0.169,0.442c-0.113,0.121 -0.264,0.182 -0.455,0.182l-2.132,0Z" style="fill:#fff;fill-rule:nonzero;"/><path d="M178.462,24.26c-1.941,0 -3.48,-0.555 -4.615,-1.664c-1.135,-1.109 -1.738,-2.687 -1.807,-4.732l-0.026,-0.65c0,-2.167 0.568,-3.874 1.703,-5.122c1.135,-1.248 2.708,-1.872 4.719,-1.872c2.063,0 3.653,0.624 4.771,1.872c1.118,1.248 1.677,2.912 1.677,4.992l0,0.546c0,0.173 -0.061,0.321 -0.182,0.442c-0.121,0.121 -0.277,0.182 -0.468,0.182l-8.632,0l0,0.208c0.035,0.971 0.299,1.772 0.793,2.405c0.494,0.633 1.174,0.949 2.041,0.949c0.988,0 1.794,-0.399 2.418,-1.196c0.156,-0.191 0.277,-0.308 0.364,-0.351c0.087,-0.043 0.234,-0.065 0.442,-0.065l2.288,0c0.156,0 0.29,0.043 0.403,0.13c0.113,0.087 0.169,0.208 0.169,0.364c0,0.416 -0.247,0.906 -0.741,1.469c-0.494,0.563 -1.2,1.053 -2.119,1.469c-0.919,0.416 -1.985,0.624 -3.198,0.624Zm2.834,-8.216l0,-0.052c0,-1.023 -0.256,-1.842 -0.767,-2.457c-0.511,-0.615 -1.209,-0.923 -2.093,-0.923c-0.884,0 -1.577,0.308 -2.08,0.923c-0.503,0.615 -0.754,1.434 -0.754,2.457l0,0.052l5.694,0Z" style="fill:#fff;fill-rule:nonzero;"/><path d="M188.29,24c-0.173,0 -0.321,-0.061 -0.442,-0.182c-0.121,-0.121 -0.182,-0.269 -0.182,-0.442l0,-17.212c0,-0.191 0.061,-0.342 0.182,-0.455c0.121,-0.113 0.269,-0.169 0.442,-0.169l2.158,0c0.173,0 0.321,0.061 0.442,0.182c0.121,0.121 0.182,0.269 0.182,0.442l0,8.892l4.316,-4.134c0.052,-0.035 0.134,-0.1 0.247,-0.195c0.113,-0.095 0.221,-0.16 0.325,-0.195c0.104,-0.035 0.234,-0.052 0.39,-0.052l2.47,0c0.173,0 0.312,0.052 0.416,0.156c0.104,0.104 0.156,0.243 0.156,0.416c0,0.156 -0.087,0.312 -0.26,0.468l-5.304,5.018l5.954,6.448c0.156,0.156 0.234,0.303 0.234,0.442c0,0.173 -0.052,0.312 -0.156,0.416c-0.104,0.104 -0.234,0.156 -0.39,0.156l-2.522,0c-0.243,0 -0.42,-0.03 -0.533,-0.091c-0.113,-0.061 -0.256,-0.178 -0.429,-0.351l-4.914,-5.226l0,5.044c0,0.173 -0.061,0.321 -0.182,0.442c-0.121,0.121 -0.269,0.182 -0.442,0.182l-2.158,0Z" style="fill:#fff;fill-rule:nonzero;"/><path d="M202.46,24c-0.173,0 -0.321,-0.061 -0.442,-0.182c-0.121,-0.121 -0.182,-0.269 -0.182,-0.442l0,-2.626c0,-0.173 0.061,-0.321 0.182,-0.442c0.121,-0.121 0.269,-0.182 0.442,-0.182l2.626,0c0.173,0 0.321,0.061 0.442,0.182c0.121,0.121 0.182,0.269 0.182,0.442l0,2.626c0,0.173 -0.056,0.321 -0.169,0.442c-0.113,0.121 -0.264,0.182 -0.455,0.182l-2.626,0Z" style="fill:#fff;fill-rule:nonzero;"/><path d="M214.654,24.26c-1.907,0 -3.428,-0.529 -4.563,-1.586c-1.135,-1.057 -1.738,-2.522 -1.807,-4.394l-0.026,-1.04l0.026,-1.04c0.069,-1.872 0.672,-3.337 1.807,-4.394c1.135,-1.057 2.656,-1.586 4.563,-1.586c1.369,0 2.526,0.243 3.471,0.728c0.945,0.485 1.647,1.079 2.106,1.781c0.459,0.702 0.706,1.374 0.741,2.015c0.017,0.173 -0.039,0.321 -0.169,0.442c-0.13,0.121 -0.282,0.182 -0.455,0.182l-2.314,0c-0.191,0 -0.329,-0.039 -0.416,-0.117c-0.087,-0.078 -0.173,-0.221 -0.26,-0.429c-0.26,-0.659 -0.602,-1.135 -1.027,-1.43c-0.425,-0.295 -0.966,-0.442 -1.625,-0.442c-0.884,0 -1.573,0.277 -2.067,0.832c-0.494,0.555 -0.758,1.404 -0.793,2.548l-0.026,0.962l0.026,0.858c0.104,2.253 1.057,3.38 2.86,3.38c0.676,0 1.222,-0.143 1.638,-0.429c0.416,-0.286 0.754,-0.767 1.014,-1.443c0.069,-0.191 0.152,-0.329 0.247,-0.416c0.095,-0.087 0.238,-0.13 0.429,-0.13l2.314,0c0.173,0 0.325,0.061 0.455,0.182c0.13,0.121 0.186,0.269 0.169,0.442c-0.035,0.607 -0.277,1.261 -0.728,1.963c-0.451,0.702 -1.144,1.304 -2.08,1.807c-0.936,0.503 -2.106,0.754 -3.51,0.754Z" style="fill:#fff;fill-rule:nonzero;"/><path d="M223.624,24c-0.173,0 -0.321,-0.061 -0.442,-0.182c-0.121,-0.121 -0.182,-0.269 -0.182,-0.442l0,-1.508c0,-0.156 0.03,-0.295 0.091,-0.416c0.061,-0.121 0.152,-0.269 0.273,-0.442l6.63,-7.774l-6.162,0c-0.173,0 -0.321,-0.065 -0.442,-0.195c-0.121,-0.13 -0.182,-0.282 -0.182,-0.455l0,-1.482c0,-0.173 0.061,-0.321 0.182,-0.442c0.121,-0.121 0.269,-0.182 0.442,-0.182l9.906,0c0.173,0 0.321,0.061 0.442,0.182c0.121,0.121 0.182,0.269 0.182,0.442l0,1.612c0,0.139 -0.039,0.277 -0.117,0.416c-0.078,0.139 -0.16,0.269 -0.247,0.39l-6.5,7.722l6.76,0c0.173,0 0.321,0.061 0.442,0.182c0.121,0.121 0.182,0.277 0.182,0.468l0,1.482c0,0.173 -0.056,0.321 -0.169,0.442c-0.113,0.121 -0.264,0.182 -0.455,0.182l-10.634,0Z" style="fill:#fff;fill-rule:nonzero;"/><path id="bxs-archive" d="M21.013,11.819l0.015,-0.008l-3.167,-5.3c-0.193,-0.317 -0.539,-0.511 -0.91,-0.511l-12.706,0c-0.371,0 -0.715,0.195 -0.907,0.512l-3.187,5.295l0.016,0.01c-0.105,0.16 -0.162,0.345 -0.167,0.536l0,10.588c0,0 0,0.001 0,0.001c0,0.58 0.478,1.058 1.058,1.058c0,0 0.001,0 0.001,0l19.059,0c0,0 0.001,0 0.001,0c0.58,0 1.058,-0.478 1.058,-1.058c0,0 0,-0.001 0,-0.001l0,-10.588c-0.004,-0.19 -0.061,-0.375 -0.164,-0.534Zm-16.17,-3.7l11.506,0l1.9,3.176l-15.317,0l1.911,-3.176Zm11.039,10.587l0,1.059l-10.588,0l0,-4.236l2.118,0l0,2.118l6.353,0l0,-2.118l2.118,0l-0.001,3.177Z" style="fill:#fff;fill-rule:nonzero;"/></g></svg>